<?xml version="1.0" encoding="UTF-8" standalone="no"?>
<svg width="220px" height="30px" viewBox="0 0 220 30" version="1.1" xmlns="http://www.w3.org/2000/svg" xmlns:xlink="http://www.w3.org/1999/xlink" xmlns:sketch="http://www.bohemiancoding.com/sketch/ns">
    <!-- Generator: Sketch 3.3.3 (12072) - http://www.bohemiancoding.com/sketch -->
    <title>logo</title>
    <desc>Created with Sketch.</desc>
    <defs></defs>
    <g id="Page-1" stroke="none" stroke-width="1" fill="none" fill-rule="evenodd" sketch:type="MSPage">
        <g id="logo" sketch:type="MSArtboardGroup">
            <g id="Group" sketch:type="MSLayerGroup" transform="translate(21.500000, 15.000000) scale(1, -1) translate(-21.500000, -15.000000) translate(3.000000, 1.000000)">
                <path d="M8.76335878,24.5 C3.71374046,22.4694656 0,20.8396947 0,20.6526718 C0,20.4656489 0.133587786,20.0114504 0.29389313,19.6374046 C0.561068702,19.0763359 0.694656489,19.0229008 1.25572519,19.2366412 C1.60305344,19.370229 1.95038168,19.4770992 2.03053435,19.4770992 C2.08396947,19.4770992 2.13740458,16.5916031 2.13740458,13.0648855 L2.13740458,6.65267176 L1.20229008,6.65267176 C0.29389313,6.65267176 0.267175573,6.6259542 0.267175573,5.58396947 L0.267175573,4.51526718 L13.4923664,4.51526718 C20.759542,4.51526718 26.7175573,4.56870229 26.7175573,4.64885496 C26.7175573,4.72900763 26.5305344,5.20992366 26.3435115,5.71755725 L25.9427481,6.65267176 L17.1259542,6.65267176 L8.28244275,6.65267176 L8.28244275,7.58778626 L8.28244275,8.52290076 L16.8320611,8.52290076 L25.3816794,8.52290076 L25.648855,9.21755725 C26.1832061,10.6335878 26.0763359,10.6335878 16.8587786,10.7137405 L8.41603053,10.7938931 L8.41603053,11.7290076 L8.41603053,12.6641221 L14.7748092,12.7977099 L21.1335878,12.9312977 L19.4503817,13.9198473 L17.7938931,14.9083969 L13.0916031,14.9083969 L8.41603053,14.9083969 L8.33587786,15.8435115 L8.28244275,16.8053435 L12.3435115,16.8053435 L16.4312977,16.8053435 L17.0458015,17.740458 C17.3664122,18.2480916 17.6335878,18.7290076 17.6335878,18.8091603 C17.6335878,18.889313 15.1221374,18.9427481 12.0229008,18.9427481 L6.41221374,18.9427481 L6.41221374,12.7977099 L6.41221374,6.65267176 L5.34351145,6.65267176 L4.27480916,6.65267176 L4.27480916,13.5725191 L4.27480916,20.4923664 L11.0877863,23.1908397 C14.8549618,24.6603053 18.0343511,25.889313 18.1679389,25.889313 C18.3015267,25.889313 19.610687,25.4083969 21.0801527,24.8206107 L23.7251908,23.778626 L25.0877863,24.3396947 L26.4503817,24.9274809 L22.6564885,26.4770992 C20.5458015,27.3053435 18.5419847,28 18.1679389,28 C17.7938931,28 13.5725191,26.4236641 8.76335878,24.5 L8.76335878,24.5 Z" id="Shape" fill="#40B4BA" sketch:type="MSShapeGroup"></path>
                <path d="M27.8396947,23.0839695 C25.5152672,22.5229008 22.6564885,20.9198473 20.8664122,19.1832061 C18.6221374,16.9656489 18.5152672,16.7251908 19.5572519,16.0572519 L20.4122137,15.5229008 L21.1603053,16.4847328 C22.7633588,18.5419847 25.2748092,20.1984733 27.8931298,20.9465649 C29.0954198,21.2938931 30.1374046,21.3740458 32.0877863,21.2938931 C34.5458015,21.1603053 34.7061069,21.1870229 34.8396947,21.721374 C34.9198473,22.0419847 35,22.4160305 35,22.6030534 C35,23.4312977 30.5381679,23.7519084 27.8396947,23.0839695 L27.8396947,23.0839695 Z" id="Shape" fill="#000000" sketch:type="MSShapeGroup"></path>
                <path d="M28.1870229,19.1030534 C25.9694656,18.4083969 24.259542,17.2862595 23.0038168,15.7099237 L22.1755725,14.721374 L23.0572519,14.1603053 L23.9122137,13.6259542 L24.6603053,14.5610687 C25.4885496,15.5496183 27.2519084,16.6717557 28.6412214,17.0992366 C29.1221374,17.2328244 30.4045802,17.3664122 31.4465649,17.3664122 L33.3969466,17.3664122 L33.610687,18.221374 C33.7977099,18.889313 33.7442748,19.1030534 33.4236641,19.2633588 C32.7022901,19.5572519 29.3091603,19.4503817 28.1870229,19.1030534 L28.1870229,19.1030534 Z" id="Shape" fill="#000000" sketch:type="MSShapeGroup"></path>
                <path d="M28.1870229,14.9351145 C27.1450382,14.4274809 25.9160305,13.278626 25.9160305,12.8244275 C25.9160305,12.6908397 26.2099237,12.3969466 26.5839695,12.1564885 C27.2519084,11.7290076 27.3053435,11.7290076 28.0534351,12.370229 C29.0152672,13.1717557 30.5381679,13.7061069 31.4198473,13.519084 C31.9007634,13.4389313 32.0877863,13.5458015 32.221374,13.9732824 C32.6755725,15.5763359 32.7557252,15.4694656 30.9389313,15.4694656 C29.8167939,15.4427481 28.8816794,15.2824427 28.1870229,14.9351145 L28.1870229,14.9351145 Z" id="Shape" fill="#000000" sketch:type="MSShapeGroup"></path>
                <path d="M29.9770992,10.740458 C28.6679389,10.2061069 28.1870229,9.88549618 27.8664122,9.21755725 C27.4923664,8.38931298 27.519084,8.25572519 28.8282443,4.88931298 C29.6030534,2.91221374 30.4580153,1.14885496 30.8320611,0.801526718 C32.8091603,-1.06870229 36.870229,0.667938931 36.870229,3.33969466 C36.870229,4.40839695 34.4923664,10.4465649 33.8778626,11.0076336 C33.1564885,11.6221374 32.0076336,11.5419847 29.9770992,10.740458 L29.9770992,10.740458 Z" id="Shape" fill="#000000" sketch:type="MSShapeGroup"></path>
            </g>
            <text id="Camargo-Portas" sketch:type="MSTextLayer" font-family=".Helvetica Neue DeskInterface" font-size="23" font-weight="420" fill="#40B4BA">
                <tspan x="43" y="24">Camargo Portas</tspan>
            </text>
        </g>
    </g>
</svg>