<?xml version="1.0" encoding="UTF-8" standalone="no"?>
<svg
   xmlns:dc="http://purl.org/dc/elements/1.1/"
   xmlns:cc="http://creativecommons.org/ns#"
   xmlns:rdf="http://www.w3.org/1999/02/22-rdf-syntax-ns#"
   xmlns:svg="http://www.w3.org/2000/svg"
   xmlns="http://www.w3.org/2000/svg"
   xmlns:xlink="http://www.w3.org/1999/xlink"
   xmlns:sodipodi="http://sodipodi.sourceforge.net/DTD/sodipodi-0.dtd"
   xmlns:inkscape="http://www.inkscape.org/namespaces/inkscape"
   width="220"
   height="30"
   viewBox="-94342.692 108.467 0 250.251"
   preserveAspectRatio="xMidYMid meet"
   zoomAndPan="disable"
   id="svg3573"
   version="1.1"
   inkscape:version="0.91 r13725"
   sodipodi:docname="logo2.svg"
   inkscape:export-filename="/Users/davidrobert/workspace/camargoportas.github.io/svg/min/logo.png"
   inkscape:export-xdpi="90"
   inkscape:export-ydpi="90">
  <metadata
     id="metadata3765">
    <rdf:RDF>
      <cc:Work
         rdf:about="">
        <dc:format>image/svg+xml</dc:format>
        <dc:type
           rdf:resource="http://purl.org/dc/dcmitype/StillImage" />
        <dc:title></dc:title>
      </cc:Work>
    </rdf:RDF>
  </metadata>
  <defs
     id="defs3763">
    <linearGradient
       inkscape:collect="always"
       xlink:href="#grdid1"
       id="linearGradient3781"
       gradientUnits="userSpaceOnUse"
       spreadMethod="pad"
       x1="125.34567"
       y1="122.15344"
       x2="86.132156"
       y2="82.939926"
       gradientTransform="scale(0.94845883,1.054342)" />
    <linearGradient
       inkscape:collect="always"
       xlink:href="#grdid1"
       id="linearGradient3783"
       gradientUnits="userSpaceOnUse"
       spreadMethod="pad"
       x1="125.34567"
       y1="122.15344"
       x2="86.132156"
       y2="82.939926"
       gradientTransform="scale(0.94845883,1.054342)" />
  </defs>
  <sodipodi:namedview
     pagecolor="#ffffff"
     bordercolor="#666666"
     borderopacity="1"
     objecttolerance="10"
     gridtolerance="10"
     guidetolerance="10"
     inkscape:pageopacity="0"
     inkscape:pageshadow="2"
     inkscape:window-width="1440"
     inkscape:window-height="851"
     id="namedview3761"
     showgrid="true"
     showguides="false"
     inkscape:snap-grids="true"
     inkscape:zoom="2.0032914"
     inkscape:cx="46.798385"
     inkscape:cy="31.769775"
     inkscape:window-x="0"
     inkscape:window-y="1"
     inkscape:window-maximized="1"
     inkscape:current-layer="svg3573">
    <inkscape:grid
       type="xygrid"
       id="grid3811" />
  </sodipodi:namedview>
  <rect
     id="svgEditorBackground"
     x="1.2552302"
     y="-220.25101"
     width="1198.7448"
     height="630"
     style="fill:none;stroke:none" />
  <g
     id="g_e1_svg"
     transform="matrix(3.7692198,0,0,1.4370828,-287.02113,-110.91703)">
    <svg
       height="1"
       width="1"
       viewBox="72 66 69 69"
       preserveAspectRatio="xMidYMid meet"
       zoomAndPan="disable"
       id="e1_svg"
       x="558.96814"
       y="275.5867"
       style="fill:#f0e68c;stroke:#000000;stroke-width:1px"
       version="1.1"
       inkscape:version="0.91 r13725">
      <defs
         id="svgEditorDefs">
        <linearGradient
           id="grdid1"
           x1="0.88"
           y1="1"
           x2="0.1"
           y2="0.22"
           spreadMethod="pad"
           gradientUnits="objectBoundingBox">
          <stop
             offset="0%"
             style="stop-color:rgb(255,255,255);stop-opacity:0"
             id="stop3580" />
          <stop
             offset="0.51"
             style="stop-color:#F5DE8C;stop-opacity:1"
             id="stop3582" />
        </linearGradient>
        <linearGradient
           id="grdlut2"
           spreadMethod="repeat"
           grdlutTransform=""
           grdlutUnits="objectBoundingBox"
           x1="0"
           y1="0"
           x2="0.2"
           y2="0">
          <stop
             id="c1"
             offset="10%"
             stop-color="#bfba7f"
             stop-opacity="1" />
          <stop
             id="c2"
             offset="55%"
             stop-color="#cfba7f"
             stop-opacity="0.5" />
          <stop
             id="c3"
             offset="100%"
             stop-color="#b2ba7f"
             stop-opacity="1" />
        </linearGradient>
      </defs>
      <rect
         x="72"
         y="66"
         width="69"
         height="69"
         style="fill:#f8f8ff;stroke:none"
         id="rect3588" />
      <path
         d="m 122.00549,75.991356 c -0.6049,0.363106 -1.72987,2.273094 -3.77326,2.829948 -2.04339,0.556855 -9.13135,1.6857 -12.26311,1.980965 -3.13176,0.295265 -10.038746,1.68734 -12.664021,1.697968 -2.625274,0.01063 -8.568893,1.021736 -8.607765,2.546951 -0.03887,1.525215 -0.163559,7.121666 -1.43856,7.357872 -1.275002,0.236206 -2.671387,-0.174484 -3.395935,0 -0.724549,0.174484 -1.829865,0.44844 -2.263962,1.226311 -0.434097,0.77787 -0.492172,3.35102 -0.660317,4.622245 -0.168144,1.271225 1.213967,4.842904 2.169625,5.376904 0.955658,0.53399 2.396316,0.72206 2.924278,0.47166 0.527962,-0.2504 1.295456,-1.52058 1.697975,-0.84899 0.402519,0.67159 1.125374,4.10904 1.886627,5.47124 0.761254,1.36219 2.874146,4.53894 3.490273,5.75422 0.616127,1.21529 0.814323,2.03672 1.980965,3.6889 1.166641,1.65218 6.970199,6.27388 9.079417,7.83948 2.10923,1.56561 7.49813,3.07769 8.96151,2.73563 1.46338,-0.34206 1.84112,-0.604 2.45262,-1.03766 0.61149,-0.43365 1.94066,-1.94819 1.91022,-2.73561 -0.0305,-0.78741 -0.86498,-2.18682 -0.37733,-3.20727 0.48765,-1.02046 -0.10149,-2.32126 -2.16961,-3.49031 4.72374,-2.20669 0.35016,-4.93398 2.26401,-7.92379 5.49832,-2.42386 9.0136,2.09531 9.834,-0.94335 0.82041,-3.03866 -0.50452,-16.046867 0.75466,-19.526649 1.25918,-3.479782 1.00887,-12.05574 -0.47167,-13.132011 -1.48053,-1.076271 -0.71573,-1.11776 -1.32064,-0.754654 z"
         style="fill:url(#linearGradient3781);fill-opacity:0.3;stroke:none;stroke-width:0.13340506px;stroke-linecap:butt;stroke-linejoin:miter"
         id="path3590"
         inkscape:connector-curvature="0" />
      <path
         d="m 122.98154,75.373695 c 0.29924,-0.649315 3.39255,-1.280388 4.96934,-1.129394 1.5768,0.150993 5.61141,1.944694 6.66344,3.614059 1.05203,1.669365 1.59216,6.620804 2.25879,8.018715 0.66662,1.397911 0.93622,4.793801 0,5.308159 -0.93622,0.514359 -2.96091,1.298775 -3.27526,0.112938 -0.31434,-1.185837 -0.81398,-6.341301 -1.58114,-8.357529 -0.76717,-2.016227 -4.3653,-6.363372 -5.75993,-6.663437 -1.39463,-0.300064 -3.57448,-0.254196 -3.27524,-0.903511 z"
         style="fill:#e9a34d;fill-opacity:0.3;stroke-width:0.15972067px;stroke-linecap:butt;stroke-linejoin:miter"
         id="path3592"
         inkscape:connector-curvature="0" />
      <path
         d="m 121.78207,74.996758 c -0.84654,-1.031792 -4.49795,-3.117981 -7.85835,-4.549576 -3.3604,-1.431595 -16.137038,-2.177681 -20.128424,-0.827195 -3.991387,1.350487 -9.243454,5.025765 -11.339463,7.444756 -2.096008,2.418991 -4.988105,6.998703 -5.686966,10.615677 -0.69886,3.616974 -0.784927,13.47421 0.413598,17.50896 1.198524,4.03476 5.082458,12.8491 5.101036,15.57885 0.01858,2.72976 0.295952,5.88907 1.240791,6.68573 0.944839,0.79667 1.952377,1.42453 2.895187,1.10292 0.94281,-0.3216 3.460007,-1.06896 3.722374,-3.44664 0.262368,-2.37767 -2.570594,-11.85562 -3.033043,-14.47592 -0.462448,-2.6203 -1.815612,-6.41883 -3.170921,-6.61756 -1.355308,-0.19873 -3.432846,0.41982 -4.549568,-0.27573 -1.116722,-0.69555 -2.855904,-4.031725 -2.895187,-5.238901 -0.03928,-1.207177 0.594406,-2.780754 0.827194,-3.584519 0.232788,-0.803764 1.236107,-2.545799 1.930122,-2.481582 0.694016,0.06422 2.270241,1.761894 2.895188,0.689331 0.624946,-1.072564 1.398025,-6.008622 4.135971,-7.582627 2.737945,-1.574005 13.04206,-4.321365 16.543911,-4.549576 3.50184,-0.22821 8.82601,-0.84301 11.06373,-0.965057 2.23773,-0.122047 6.17461,-1.599609 6.8933,-2.619453 0.71869,-1.019844 1.84607,-1.380097 0.99952,-2.411888 z"
         style="fill:#e9a34d;fill-opacity:0.3;stroke-width:1px;stroke-linecap:round;stroke-linejoin:miter"
         id="path3594"
         inkscape:connector-curvature="0" />
      <path
         d="m 102.543,95.8305 c -0.53,-0.2708 -2.8004,-0.9985 -3.8297,-1.2007 -1.0292,-0.2022 -3.492,0.1504 -4.381,-0.0649 -0.8889,-0.2152 -3.9325,0.6606 -3.5408,1.363 0.3916,0.7023 2.9444,1.4508 3.5372,1.7848 0.5928,0.3341 0.951,0.6206 1.363,0.6491 0.412,0.0285 1.1272,-0.1088 1.8173,-0.1298 0.6901,-0.021 3.01,-0.4517 3.671,-0.5193 0.661,-0.0675 1.478,-0.3704 1.687,-0.6165 0.209,-0.2462 0.36,-0.6157 0.26,-0.7789 -0.1,-0.1631 -0.054,-0.216 -0.584,-0.4868 z"
         style="fill:none;stroke:#000000;stroke-width:0.60000002px;stroke-linecap:butt;stroke-linejoin:miter"
         id="path3596"
         inkscape:connector-curvature="0" />
      <path
         d="m 101.845,94.6298 c -0.714,-0.3153 -2.2893,-0.784 -2.9856,-0.9086 -0.6964,-0.1247 -1.779,-0.2336 -2.5313,-0.1948 -0.7523,0.0389 -2.7045,0.4217 -3.4399,0.5842 -0.7353,0.1625 -1.8509,0.5246 -2.4014,0.8437 -0.5506,0.3191 -0.9092,0.5924 -1.363,1.0385"
         style="fill:none;stroke:#000000;stroke-width:0.80000001px;stroke-linecap:round;stroke-linejoin:miter"
         id="path3598"
         inkscape:connector-curvature="0" />
      <path
         d="m 117.826,97.226 c -0.113,-0.2995 -0.787,-0.696 -1.104,-0.6491 -0.317,0.0469 -0.768,0.502 -0.843,0.7789 -0.075,0.2769 0.193,1.1596 0.519,1.2331 0.326,0.0735 0.692,-0.5508 0.973,-0.5841 0.281,-0.0333 0.249,0.0288 0.325,0 0.076,-0.0288 0.183,-0.5889 0.13,-0.7788 z"
         style="fill:#000000;fill-opacity:0.8;stroke:#000000;stroke-width:0.2px;stroke-linecap:round;stroke-linejoin:miter;stroke-opacity:0.5"
         id="path3600"
         inkscape:connector-curvature="0" />
      <path
         d="m 116.073,95.4087 c -0.517,0.3006 -1.221,1.5208 -1.298,2.012 -0.076,0.4911 0.098,1.2654 0.325,1.5577 0.227,0.2922 0.729,0.6105 1.168,0.7139 0.439,0.1034 1.784,-0.3661 2.077,-0.8437 0.293,-0.4777 0.257,-1.6185 -0.065,-2.077"
         style="fill:none;stroke:#000000;stroke-width:0.5px;stroke-linecap:round;stroke-linejoin:miter"
         id="path3602"
         inkscape:connector-curvature="0" />
      <path
         d="m 121.81,97.7452 c -0.514,0.5422 -1.837,1.4502 -2.466,1.6875 -0.629,0.2373 -1.742,0.453 -2.337,0.5192 -0.594,0.0661 -1.871,0.0661 -2.466,0"
         style="fill:none;stroke:#000000;stroke-width:1px;stroke-linecap:round;stroke-linejoin:miter"
         id="path3604"
         inkscape:connector-curvature="0" />
      <path
         d="m 114.411,94.5 c 0.746,0.4781 2.308,1.3242 3.115,1.6875 0.808,0.3633 3.294,1.2177 4.154,1.4279"
         style="fill:none;stroke:#000000;stroke-width:1px;stroke-linecap:round;stroke-linejoin:miter"
         id="path3606"
         inkscape:connector-curvature="0" />
      <path
         d="m 111.945,80.0913 c 0.442,0.2896 1.496,0.1361 1.557,1.4279 0.062,1.2919 -0.501,6.3752 -0.519,8.6971 -0.018,2.322 0.111,7.8696 0.13,9.8657 0.019,1.996 -0.027,4.849 0.13,6.101 0.157,1.251 0.474,3.268 0.259,4.024 -0.214,0.755 -0.723,1.889 -0.519,2.336 0.204,0.447 1.13,1.33 0.649,1.688 -0.481,0.358 -2.814,0.529 -3.764,0.519 -0.95,-0.01 -2.593,-0.253 -3.505,-0.519"
         style="fill:none;stroke:#000000;stroke-width:1px;stroke-linecap:round;stroke-linejoin:miter"
         id="path3608"
         inkscape:connector-curvature="0" />
      <path
         d="m 123.238,90.2163 c -0.896,-0.3304 -2.81,-0.6603 -3.764,-0.649 -0.955,0.0113 -3.282,0.5202 -4.154,0.9087"
         style="fill:none;stroke:#000000;stroke-width:1px;stroke-linecap:round;stroke-linejoin:miter"
         id="path3610"
         inkscape:connector-curvature="0" />
      <path
         d="m 107.791,89.3077 c -2.171,-0.8792 -7.139,-1.711 -9.2165,-1.6875 -2.0779,0.0235 -5.4435,0.654 -7.1394,1.2981 -1.6959,0.6441 -1.4197,0.5119 -2.9856,1.4279"
         style="fill:none;stroke:#000000;stroke-width:1px;stroke-linecap:round;stroke-linejoin:miter"
         id="path3612"
         inkscape:connector-curvature="0" />
      <polyline
         style="fill:none;stroke:#000000;stroke-width:1px;stroke-linecap:butt;stroke-linejoin:miter"
         points="122.589,109.558 113.502,110.596"
         id="polyline3614" />
      <path
         d="m 123.757,76.7163 c 0.189,1.6471 0.425,4.9146 0.39,6.6202 -0.036,1.7057 -0.155,4.8104 -0.39,7.0097 -0.235,2.1993 -0.806,7.9754 -0.908,10.6438 -0.102,2.669 -0.102,6.029 0,8.698"
         style="fill:none;stroke:#000000;stroke-width:1px;stroke-linecap:round;stroke-linejoin:miter"
         id="path3616"
         inkscape:connector-curvature="0" />
      <path
         d="m 82.0889,86.8413 c 0.4265,-0.4197 1.3373,-1.2004 1.8173,-1.5576 0.48,-0.3572 8.9096,-2.721 11.9424,-3.375 3.0328,-0.654 11.7414,-1.2273 15.5764,-2.077 3.835,-0.8497 6.905,-0.8658 8.568,-2.3365 1.663,-1.4707 1.973,-1.5766 1.947,-2.3365 -0.026,-0.7599 -1.694,-1.7243 -2.337,-2.2068 -0.643,-0.4825 -6.067,-2.3725 -8.178,-2.8557 -2.111,-0.4832 -12.8326,-1.3388 -16.8745,-0.1299 -4.0419,1.2089 -14.5111,7.1468 -15.9808,12.0722 -1.4697,4.9254 -2.7776,9.4626 -2.8558,12.7211 -0.0782,3.2585 1.0598,8.8254 1.8173,11.6824 0.7575,2.857 2.7235,7.172 3.5049,9.606 0.7814,2.434 2.418,8.411 2.9855,10.904"
         style="fill:none;stroke:#000000;stroke-width:1px;stroke-linecap:round;stroke-linejoin:miter"
         id="path3618"
         inkscape:connector-curvature="0" />
      <path
         d="m 94.9771,94.6077 c -0.1501,0.3355 -0.2474,1.0502 -0.3711,1.4227 -0.1237,0.3726 -0.0952,1.4731 0.1855,1.7321 0.2807,0.259 0.9357,0.4436 1.2372,0.4948 0.3015,0.0512 0.7375,0.106 1.1135,-0.0618 0.376,-0.1678 1.2736,-1.1035 1.4846,-1.6083 0.211,-0.5049 0.2924,-1.3191 0.1856,-1.8558"
         style="fill:none;stroke:#000000;stroke-width:0.5px;stroke-linecap:butt;stroke-linejoin:miter"
         id="path3620"
         inkscape:connector-curvature="0" />
      <path
         d="m 96.6473,96.4016 c 0.1777,0.0557 0.5836,-0.008 0.7423,-0.0619 0.1587,-0.0539 0.43,-0.2782 0.433,-0.433 0.003,-0.1548 -0.1454,-0.4505 -0.3093,-0.5567 -0.1639,-0.1062 -0.6697,-0.2161 -0.9279,-0.0619 -0.2581,0.1542 -0.6485,0.9884 -0.6185,1.3609 0.0299,0.3725 0.0055,0.2911 0.1855,0.6186"
         style="fill:none;stroke:#000000;stroke-width:0.2px;stroke-linecap:round;stroke-linejoin:miter"
         id="path3622"
         inkscape:connector-curvature="0" />
      <path
         d="m 115.282,108.959 c 0.111,-0.108 0.231,-0.181 0.495,-0.371 0.264,-0.19 1.675,-0.328 1.98,-0.186 0.304,0.142 0.458,0.286 0.556,0.433 0.098,0.147 0.065,0.081 0.124,0.248"
         style="fill:none;stroke:#000000;stroke-width:0.5px;stroke-linecap:round;stroke-linejoin:miter"
         id="path3624"
         inkscape:connector-curvature="0" />
      <polyline
         style="fill:none;stroke:#000000;stroke-width:0.5px;stroke-linecap:round;stroke-linejoin:round"
         points="110.395,110.196 111.633,110.32 111.818,110.815"
         id="polyline3626" />
      <path
         d="m 116.705,75.9264 c -1.469,0.483 -4.498,1.3652 -5.938,1.732 -1.441,0.3668 -3.937,0.9809 -5.568,1.2372 -1.63,0.2562 -5.5703,0.9999 -7.4228,1.1134 -1.8524,0.1136 -5.5999,0.6141 -7.2993,1.3609 -1.6994,0.7468 -1.3292,0.5376 -2.8455,1.6084"
         style="fill:none;stroke:#000000;stroke-width:1px;stroke-linecap:round;stroke-linejoin:miter"
         id="path3628"
         inkscape:connector-curvature="0" />
      <path
         d="m 116.581,74.1943 c -1.385,0.3087 -3.781,0.8693 -5.567,1.1135 -1.786,0.2442 -6.66,0.927 -8.66,1.2372 -2,0.3101 -5.5052,0.9865 -7.2996,1.4846 -1.7943,0.498 -9.876,3.8002 -11.5057,4.7012"
         style="fill:none;stroke:#000000;stroke-width:1px;stroke-linecap:round;stroke-linejoin:miter"
         id="path3630"
         inkscape:connector-curvature="0" />
      <path
         d="m 114.354,73.2046 c -1.855,-0.4612 -5.644,-1.0285 -7.546,-1.2372 -1.903,-0.2086 -5.394,-0.3138 -7.6709,0 -2.2773,0.3138 -8.0747,2.3235 -10.1448,3.4641 -2.0701,1.1407 -5.0888,3.5273 -6.4333,5.0724 -1.3444,1.5451 -3.3824,5.0035 -4.0827,6.9282"
         style="fill:none;stroke:#000000;stroke-width:1px;stroke-linecap:round;stroke-linejoin:miter"
         id="path3632"
         inkscape:connector-curvature="0" />
      <path
         d="m 120.664,75.0604 c -0.367,-0.1636 -1.11,-0.473 -1.485,-0.6186 -0.374,-0.1456 -0.98,-0.3658 -1.361,-0.4949"
         style="fill:none;stroke:#000000;stroke-width:1px;stroke-linecap:round;stroke-linejoin:miter"
         id="path3634"
         inkscape:connector-curvature="0" />
      <path
         d="m 78.8475,89.4116 c 0.6617,-0.0887 2.0966,-0.433 2.598,-0.6186 0.5015,-0.1857 1.1145,-0.4616 1.4847,-0.6186 0.3701,-0.157 0.497,-0.2114 0.866,-0.3712"
         style="fill:none;stroke:#000000;stroke-width:0.5px;stroke-linecap:round;stroke-linejoin:miter"
         id="path3636"
         inkscape:connector-curvature="0" />
      <polyline
         style="fill:none;stroke:#000000;stroke-width:0.5px;stroke-linecap:round;stroke-linejoin:miter"
         points="79.0949,89.7827 83.7962,89.7209"
         id="polyline3638" />
      <path
         d="m 78.9712,90.525 c 0.6885,-0.1797 2.3165,-0.1879 2.8455,-0.0618 0.529,0.126 1.075,0.3502 1.4227,0.4948 0.3478,0.1446 0.7186,0.3191 1.0516,0.4949"
         style="fill:none;stroke:#000000;stroke-width:0.5px;stroke-linecap:round;stroke-linejoin:miter"
         id="path3640"
         inkscape:connector-curvature="0" />
      <path
         d="m 79.3424,91.391 c 0.5904,-0.1231 1.9499,-0.0973 2.4124,0 0.4626,0.0974 0.9883,0.2895 1.2991,0.433 0.3107,0.1436 0.7751,0.4168 1.0516,0.6186"
         style="fill:none;stroke:#000000;stroke-width:0.5px;stroke-linecap:round;stroke-linejoin:miter"
         id="path3642"
         inkscape:connector-curvature="0" />
      <path
         d="m 82.7446,92.7519 c -0.2031,-0.1193 -0.4631,-0.2537 -0.866,-0.3711 -0.403,-0.1174 -1.8143,-0.1713 -2.4125,0.1237 -0.5982,0.295 -1.7229,1.4069 -2.0414,2.1032 -0.3184,0.6963 -0.6056,2.3003 -0.5567,3.1548 0.0489,0.8544 0.707,2.7655 0.9279,3.5255 0.2209,0.761 0.934,2.017 1.4846,2.351 0.5506,0.334 1.852,0.42 2.3506,0.309 0.4986,-0.11 1.2674,-0.643 1.4228,-0.989 0.1553,-0.346 0.181,-0.978 0.1237,-1.299 -0.0573,-0.322 -0.449,-1.07 -0.6805,-1.299"
         style="fill:none;stroke:#000000;stroke-width:0.80000001px;stroke-linecap:round;stroke-linejoin:miter"
         id="path3644"
         inkscape:connector-curvature="0" />
      <path
         d="m 83.2394,96.8346 c 0.0351,-0.344 -0.0976,-1.0056 -0.2474,-1.3609 -0.1498,-0.3553 -0.7669,-1.1001 -1.2372,-1.1753 -0.4702,-0.0753 -1.554,0.1023 -2.0413,0.6186 -0.4872,0.5162 -1.1352,2.6463 -1.1753,3.4022 -0.0401,0.7559 0.2806,1.9348 0.4949,2.4128 0.2142,0.477 0.8154,1.103 1.1753,1.299 0.3598,0.195 1.2318,0.224 1.5464,0 0.3147,-0.225 0.0846,0.005 0.3093,-0.31"
         style="fill:none;stroke:#000000;stroke-width:0.5px;stroke-linecap:round;stroke-linejoin:miter"
         id="path3646"
         inkscape:connector-curvature="0" />
      <path
         d="m 82.126,96.9583 c -0.2252,-0.2087 -1.0762,-0.3615 -1.299,-0.1856 -0.2228,0.176 -0.3991,0.6028 -0.433,0.8661 -0.034,0.2633 0.1536,0.8744 0.3092,1.1134 0.1557,0.239 0.7552,0.5755 0.9898,0.5567 0.2346,-0.0187 0.514,-0.1465 0.6804,-0.3093 0.1665,-0.1627 0.4068,-0.7686 0.3712,-1.0516 -0.0356,-0.2829 -0.3934,-0.7809 -0.6186,-0.9897 z"
         style="fill:none;stroke:#000000;stroke-width:0.5px;stroke-linecap:round;stroke-linejoin:miter"
         id="path3648"
         inkscape:connector-curvature="0" />
      <path
         d="m 78.9403,103.392 c 0.4057,1.307 1.2285,3.912 1.732,5.196 0.5035,1.284 1.6217,3.956 1.9795,5.196 0.3578,1.24 0.9177,3.555 1.3609,4.577 0.4432,1.023 1.2877,2.847 1.6083,3.836 0.3207,0.989 1.02,4.408 1.1135,5.443"
         style="fill:none;stroke:#000000;stroke-width:1px;stroke-linecap:round;stroke-linejoin:miter"
         id="path3650"
         inkscape:connector-curvature="0" />
      <path
         d="m 81.4146,104.134 c 0.5655,1.282 1.6452,3.837 2.1032,5.196 0.458,1.359 1.4452,4.515 1.8558,5.567 0.4106,1.052 0.843,1.979 1.1134,2.97 0.2705,0.99 0.8048,3.7 0.9898,4.948 0.1849,1.248 0.267,1.959 0.3711,3.217"
         style="fill:none;stroke:#000000;stroke-width:1px;stroke-linecap:round;stroke-linejoin:miter"
         id="path3652"
         inkscape:connector-curvature="0" />
      <path
         d="m 83.425,102.031 c 0.0586,1.011 0.4645,3.101 0.866,3.959 0.4016,0.858 1.1304,2.009 1.7321,3.093 0.6017,1.083 2.479,4.313 3.0929,5.567 0.614,1.253 1.4867,3.104 2.3506,4.206 0.864,1.102 3.2208,3.353 4.5776,4.454 1.3567,1.102 5.1068,3.199 6.5568,3.835 1.45,0.637 3.709,0.98 4.949,1.237 1.24,0.258 4.493,-0.386 5.072,-1.36 0.58,-0.975 0.653,-3.066 0.619,-3.836 -0.034,-0.769 -0.18,-1.837 -0.495,-2.227 -0.315,-0.389 -0.912,-1.016 -1.113,-1.484 -0.202,-0.468 -0.287,-2.051 0.123,-2.227 0.411,-0.176 1.664,-0.5 1.856,-0.99 0.192,-0.489 0.083,-1.199 -0.247,-1.608"
         style="fill:none;stroke:#000000;stroke-width:1px;stroke-linecap:round;stroke-linejoin:miter"
         id="path3654"
         inkscape:connector-curvature="0" />
      <path
         d="m 86.2705,109.701 c 0.1079,1.339 0.4969,4.215 0.7423,5.32 0.2455,1.105 0.7315,2.696 0.866,3.588 0.1346,0.891 0.4392,2.632 0.7423,3.464 0.3032,0.832 0.5418,1.339 0.9898,2.103"
         style="fill:none;stroke:#000000;stroke-width:1px;stroke-linecap:round;stroke-linejoin:miter"
         id="path3656"
         inkscape:connector-curvature="0" />
      <polyline
         style="fill:none;stroke:#000000;stroke-width:1px;stroke-linecap:round;stroke-linejoin:miter"
         points="117.849,75.4315 120.2,74.9366"
         id="polyline3658" />
      <polyline
         style="fill:none;stroke:#000000;stroke-width:1px;stroke-linecap:round;stroke-linejoin:miter"
         points="117.849,76.545 120.819,75.3078"
         id="polyline3660" />
      <path
         d="m 124.283,77.2873 c 0.52,0.590698 1.696,1.784699 2.227,2.226898 0.53,0.442101 1.176,1.1567 1.85501,1.484604 0.67999,0.327896 2.73098,1.4123 2.84599,2.474297 0.115,1.062004 -0.497,3.317398 -0.743,5.072403 -0.24499,1.754997 -1.089,6.862098 -1.608,8.907699 -0.518,2.045502 -1.945,5.807799 -2.103,7.546799 -0.158,1.739 -1.101,5.383 -1.732,6.186 -0.631,0.803 -0.933,1.013 -1.237,1.237 -0.305,0.224 -0.486,0.592 -1.114,0.619 -0.628,0.027 -3.213,-0.033 -3.835,-0.248 -0.622,-0.215 -1.634,-0.39 -1.856,-0.124 -0.221,0.267 -0.39,0.591 -0.371,0.866 0.019,0.276 0.023,1.38 -0.247,1.361 -0.271,-0.019 -1.899,0.147 -1.732,0.371 0.167,0.225 1.771,1.027 1.484,1.361 -0.287,0.335 -1.814,1.245 -1.979,1.856 -0.166,0.612 -0.014,1.897 0.247,2.351 0.261,0.453 0.836,1.056 1.114,1.484 0.278,0.428 0.778,1.42 1.237,1.856 0.459,0.436 1.447,1.562 1.856,2.227 0.408,0.665 0.727,2.683 0.495,3.34 -0.233,0.658 -0.896,1.43901 -1.361,1.73201 -0.466,0.29399 -2.06649,2.08392 -6.76064,-1.01233"
         style="fill:none;stroke:#808080;stroke-width:1px;stroke-linecap:round;stroke-linejoin:miter"
         id="path3662"
         inkscape:connector-curvature="0" />
      <path
         d="m 122.69,75.3833 c 0.667,-0.3895 2.049,-0.8853 2.907,-1.0516 0.859,-0.1664 3.109,-0.0645 3.897,0.2474 0.789,0.3119 1.636,0.897 2.475,1.4846 0.838,0.5877 3.033,2.9817 3.464,4.0208 0.43,1.0392 0.76,2.6767 0.928,3.5878 0.167,0.9111 0.399,6.3773 0.309,7.2993"
         style="fill:none;stroke:#000000;stroke-width:1px;stroke-linecap:round;stroke-linejoin:miter"
         id="path3664"
         inkscape:connector-curvature="0" />
      <path
         d="m 122.937,75.3833 c 1.316,-0.2233 4.063,0.0268 5.32,0.433 1.257,0.4062 3.543,1.736 4.392,2.8455 0.849,1.1095 2.008,4.0414 2.289,5.5054 0.28,1.4639 0.327,3.2866 0.123,4.7631"
         style="fill:none;stroke:#000000;stroke-width:1px;stroke-linecap:round;stroke-linejoin:miter"
         id="path3666"
         inkscape:connector-curvature="0" />
      <path
         d="m 124.113,76.6204 c 0.596,-0.1709 1.675,-0.3282 2.474,-0.1855 0.798,0.1426 2.821,1.0433 3.588,1.7939 0.766,0.7505 2.042,2.7902 2.412,3.8971 0.37,1.1068 0.712,3.5117 0.742,4.7012 0.031,1.1895 -0.13,2.9793 -0.371,4.1445"
         style="fill:none;stroke:#000000;stroke-width:1px;stroke-linecap:round;stroke-linejoin:miter"
         id="path3668"
         inkscape:connector-curvature="0" />
      <path
         d="m 101.395,99.8589 c -0.269,-0.1429 -0.351,0.071 -1.114,-0.4949 -2.1226,0.2383 -4.4194,0.2523 -6.4328,0.1856 -0.838,0.9844 -1.3135,2.5814 -1.5465,3.7114 -0.2329,1.13 -0.3997,3.827 -0.5567,5.196 -0.157,1.37 -0.1952,4.61 -0.0618,5.815 0.1334,1.204 0.2444,2.445 0.9278,3.773 0.8691,0.895 1.4203,2.016 2.5981,3.031 0.8685,1.015 2.9443,2.316 2.0413,1.856 0.2724,-0.893 -0.1273,-6.128 0.1237,-7.794 0.2511,-1.666 0.8803,-4.315 1.1754,-5.567 0.295,-1.253 0.8459,-3.351 1.1753,-4.454 0.3292,-1.104 1.3802,-4.183 1.7942,-5.2581"
         style="fill:none;stroke:#000000;stroke-width:0.69999999;stroke-linecap:round;stroke-linejoin:miter;stroke-opacity:0.8"
         id="path3670"
         inkscape:connector-curvature="0" />
      <circle
         cx="116.845"
         cy="97.5924"
         r="0.71928"
         style="fill:#96c030;stroke-width:0.13340506px;stroke-linecap:butt;stroke-linejoin:miter"
         id="circle3672" />
      <circle
         cx="96.941597"
         cy="95.809799"
         r="0.65785301"
         style="fill:#8d7fff;stroke-width:0.13340506px;stroke-linecap:butt;stroke-linejoin:miter"
         id="circle3674" />
    </svg>
  </g>
  <g
     id="g_e2_svg"
     transform="matrix(0.22721698,0,0,0.22745491,-118.58578,-72.010512)">
    <svg
       height="169"
       width="169"
       viewBox="0 0 150 123"
       preserveAspectRatio="xMidYMid meet"
       zoomAndPan="disable"
       id="e2_svg"
       x="530.96826"
       y="299.58667"
       style="fill:#f0e68c;stroke:#000000;stroke-width:1px"
       version="1.1"
       inkscape:version="0.91 r13725">
      <metadata
         id="metadata3678">
Created by potrace 1.13, written by Peter Selinger 2001-2015
</metadata>
      <g
         transform="matrix(0.1,0,0,-0.1,0,123)"
         id="g3680"
         style="fill:#000000;stroke:none">
        <path
           d="M 398,978 C 209,902 70,841 70,834 c 0,-7 5,-24 11,-38 10,-21 15,-23 36,-15 13,5 26,9 29,9 2,0 4,-108 4,-240 l 0,-240 -35,0 c -34,0 -35,-1 -35,-40 l 0,-40 495,0 c 272,0 495,2 495,5 0,3 -7,21 -14,40 l -15,35 -330,0 -331,0 0,35 0,35 320,0 320,0 10,26 c 20,53 16,53 -329,56 l -316,3 0,35 0,35 238,5 238,5 -63,37 -62,37 -176,0 -175,0 -3,35 -2,36 152,0 153,0 23,35 c 12,19 22,37 22,40 0,3 -94,5 -210,5 l -210,0 0,-230 0,-230 -40,0 -40,0 0,259 0,259 255,101 c 141,55 260,101 265,101 5,0 54,-18 109,-40 l 99,-39 51,21 51,22 -142,58 c -79,31 -154,57 -168,57 -14,0 -172,-59 -352,-131 z"
           id="path3682"
           inkscape:connector-curvature="0"
           style="fill:#3cadb2;stroke:#3cadb2" />
        <path
           d="M 1112,925 C 1025,904 918,844 851,779 767,696 763,687 802,662 l 32,-20 28,36 c 60,77 154,139 252,167 45,13 84,16 157,13 92,-5 98,-4 103,16 3,12 6,26 6,33 0,31 -167,43 -268,18 z"
           id="path3684"
           inkscape:connector-curvature="0" />
        <path
           d="M 1125,776 C 1042,750 978,708 931,649 l -31,-37 33,-21 32,-20 28,35 c 31,37 97,79 149,95 18,5 66,10 105,10 l 73,0 8,32 c 7,25 5,33 -7,39 -27,11 -154,7 -196,-6 z"
           id="path3686"
           inkscape:connector-curvature="0" />
        <path
           d="m 1125,620 c -39,-19 -85,-62 -85,-79 0,-5 11,-16 25,-25 25,-16 27,-16 55,8 36,30 93,50 126,43 18,-3 25,1 30,17 17,60 20,56 -48,56 -42,-1 -77,-7 -103,-20 z"
           id="path3688"
           inkscape:connector-curvature="0" />
        <path
           d="m 1192,463 c -49,-20 -67,-32 -79,-57 -14,-31 -13,-36 36,-162 29,-74 61,-140 75,-153 74,-70 226,-5 226,95 0,40 -89,266 -112,287 -27,23 -70,20 -146,-10 z"
           id="path3690"
           inkscape:connector-curvature="0" />
      </g>
    </svg>
  </g>
  <g
     id="e4_e1_svg"
     transform="matrix(3.7692198,0,0,1.4370828,-287.02113,-110.91703)">
    <svg
       height="1"
       width="1"
       viewBox="72 66 69 69"
       preserveAspectRatio="xMidYMid meet"
       zoomAndPan="disable"
       id="e5_svg"
       x="558.96814"
       y="275.5867"
       style="fill:#f0e68c;stroke:#000000;stroke-width:1px"
       version="1.1"
       inkscape:version="0.91 r13725">
      <defs
         id="e6_defs">
        <linearGradient
           id="e7_linearGradient"
           x1="0.88"
           y1="1"
           x2="0.1"
           y2="0.22"
           spreadMethod="pad"
           gradientUnits="objectBoundingBox">
          <stop
             offset="0%"
             style="stop-color:rgb(255,255,255);stop-opacity:0"
             id="e8_stop" />
          <stop
             offset="0.51"
             style="stop-color:#F5DE8C;stop-opacity:1"
             id="e9_stop" />
        </linearGradient>
        <linearGradient
           id="e10_linearGradient"
           spreadMethod="repeat"
           grdlutTransform=""
           grdlutUnits="objectBoundingBox"
           x1="0"
           y1="0"
           x2="0.2"
           y2="0">
          <stop
             id="e11_stop"
             offset="10%"
             stop-color="#bfba7f"
             stop-opacity="1" />
          <stop
             id="e12_stop"
             offset="55%"
             stop-color="#cfba7f"
             stop-opacity="0.5" />
          <stop
             id="e13_stop"
             offset="100%"
             stop-color="#b2ba7f"
             stop-opacity="1" />
        </linearGradient>
      </defs>
      <rect
         x="72"
         y="66"
         width="69"
         height="69"
         style="fill:#f8f8ff;stroke:none"
         id="e14_rect" />
      <path
         d="m 122.00549,75.991356 c -0.6049,0.363106 -1.72987,2.273094 -3.77326,2.829948 -2.04339,0.556855 -9.13135,1.6857 -12.26311,1.980965 -3.13176,0.295265 -10.038746,1.68734 -12.664021,1.697968 -2.625274,0.01063 -8.568893,1.021736 -8.607765,2.546951 -0.03887,1.525215 -0.163559,7.121666 -1.43856,7.357872 -1.275002,0.236206 -2.671387,-0.174484 -3.395935,0 -0.724549,0.174484 -1.829865,0.44844 -2.263962,1.226311 -0.434097,0.77787 -0.492172,3.35102 -0.660317,4.622245 -0.168144,1.271225 1.213967,4.842904 2.169625,5.376904 0.955658,0.53399 2.396316,0.72206 2.924278,0.47166 0.527962,-0.2504 1.295456,-1.52058 1.697975,-0.84899 0.402519,0.67159 1.125374,4.10904 1.886627,5.47124 0.761254,1.36219 2.874146,4.53894 3.490273,5.75422 0.616127,1.21529 0.814323,2.03672 1.980965,3.6889 1.166641,1.65218 6.970199,6.27388 9.079417,7.83948 2.10923,1.56561 7.49813,3.07769 8.96151,2.73563 1.46338,-0.34206 1.84112,-0.604 2.45262,-1.03766 0.61149,-0.43365 1.94066,-1.94819 1.91022,-2.73561 -0.0305,-0.78741 -0.86498,-2.18682 -0.37733,-3.20727 0.48765,-1.02046 -0.10149,-2.32126 -2.16961,-3.49031 4.72374,-2.20669 0.35016,-4.93398 2.26401,-7.92379 5.49832,-2.42386 9.0136,2.09531 9.834,-0.94335 0.82041,-3.03866 -0.50452,-16.046867 0.75466,-19.526649 1.25918,-3.479782 1.00887,-12.05574 -0.47167,-13.132011 -1.48053,-1.076271 -0.71573,-1.11776 -1.32064,-0.754654 z"
         style="fill:url(#linearGradient3783);fill-opacity:0.3;stroke:none;stroke-width:0.13340506px;stroke-linecap:butt;stroke-linejoin:miter"
         id="e15_path"
         inkscape:connector-curvature="0" />
      <path
         d="m 122.98154,75.373695 c 0.29924,-0.649315 3.39255,-1.280388 4.96934,-1.129394 1.5768,0.150993 5.61141,1.944694 6.66344,3.614059 1.05203,1.669365 1.59216,6.620804 2.25879,8.018715 0.66662,1.397911 0.93622,4.793801 0,5.308159 -0.93622,0.514359 -2.96091,1.298775 -3.27526,0.112938 -0.31434,-1.185837 -0.81398,-6.341301 -1.58114,-8.357529 -0.76717,-2.016227 -4.3653,-6.363372 -5.75993,-6.663437 -1.39463,-0.300064 -3.57448,-0.254196 -3.27524,-0.903511 z"
         style="fill:#e9a34d;fill-opacity:0.3;stroke-width:0.15972067px;stroke-linecap:butt;stroke-linejoin:miter"
         id="e16_path"
         inkscape:connector-curvature="0" />
      <path
         d="m 121.78207,74.996758 c -0.84654,-1.031792 -4.49795,-3.117981 -7.85835,-4.549576 -3.3604,-1.431595 -16.137038,-2.177681 -20.128424,-0.827195 -3.991387,1.350487 -9.243454,5.025765 -11.339463,7.444756 -2.096008,2.418991 -4.988105,6.998703 -5.686966,10.615677 -0.69886,3.616974 -0.784927,13.47421 0.413598,17.50896 1.198524,4.03476 5.082458,12.8491 5.101036,15.57885 0.01858,2.72976 0.295952,5.88907 1.240791,6.68573 0.944839,0.79667 1.952377,1.42453 2.895187,1.10292 0.94281,-0.3216 3.460007,-1.06896 3.722374,-3.44664 0.262368,-2.37767 -2.570594,-11.85562 -3.033043,-14.47592 -0.462448,-2.6203 -1.815612,-6.41883 -3.170921,-6.61756 -1.355308,-0.19873 -3.432846,0.41982 -4.549568,-0.27573 -1.116722,-0.69555 -2.855904,-4.031725 -2.895187,-5.238901 -0.03928,-1.207177 0.594406,-2.780754 0.827194,-3.584519 0.232788,-0.803764 1.236107,-2.545799 1.930122,-2.481582 0.694016,0.06422 2.270241,1.761894 2.895188,0.689331 0.624946,-1.072564 1.398025,-6.008622 4.135971,-7.582627 2.737945,-1.574005 13.04206,-4.321365 16.543911,-4.549576 3.50184,-0.22821 8.82601,-0.84301 11.06373,-0.965057 2.23773,-0.122047 6.17461,-1.599609 6.8933,-2.619453 0.71869,-1.019844 1.84607,-1.380097 0.99952,-2.411888 z"
         style="fill:#e9a34d;fill-opacity:0.3;stroke-width:1px;stroke-linecap:round;stroke-linejoin:miter"
         id="e17_path"
         inkscape:connector-curvature="0" />
      <path
         d="m 102.543,95.8305 c -0.53,-0.2708 -2.8004,-0.9985 -3.8297,-1.2007 -1.0292,-0.2022 -3.492,0.1504 -4.381,-0.0649 -0.8889,-0.2152 -3.9325,0.6606 -3.5408,1.363 0.3916,0.7023 2.9444,1.4508 3.5372,1.7848 0.5928,0.3341 0.951,0.6206 1.363,0.6491 0.412,0.0285 1.1272,-0.1088 1.8173,-0.1298 0.6901,-0.021 3.01,-0.4517 3.671,-0.5193 0.661,-0.0675 1.478,-0.3704 1.687,-0.6165 0.209,-0.2462 0.36,-0.6157 0.26,-0.7789 -0.1,-0.1631 -0.054,-0.216 -0.584,-0.4868 z"
         style="fill:none;stroke:#000000;stroke-width:0.60000002px;stroke-linecap:butt;stroke-linejoin:miter"
         id="e18_path"
         inkscape:connector-curvature="0" />
      <path
         d="m 101.845,94.6298 c -0.714,-0.3153 -2.2893,-0.784 -2.9856,-0.9086 -0.6964,-0.1247 -1.779,-0.2336 -2.5313,-0.1948 -0.7523,0.0389 -2.7045,0.4217 -3.4399,0.5842 -0.7353,0.1625 -1.8509,0.5246 -2.4014,0.8437 -0.5506,0.3191 -0.9092,0.5924 -1.363,1.0385"
         style="fill:none;stroke:#000000;stroke-width:0.80000001px;stroke-linecap:round;stroke-linejoin:miter"
         id="e19_path"
         inkscape:connector-curvature="0" />
      <path
         d="m 117.826,97.226 c -0.113,-0.2995 -0.787,-0.696 -1.104,-0.6491 -0.317,0.0469 -0.768,0.502 -0.843,0.7789 -0.075,0.2769 0.193,1.1596 0.519,1.2331 0.326,0.0735 0.692,-0.5508 0.973,-0.5841 0.281,-0.0333 0.249,0.0288 0.325,0 0.076,-0.0288 0.183,-0.5889 0.13,-0.7788 z"
         style="fill:#000000;fill-opacity:0.8;stroke:#000000;stroke-width:0.2px;stroke-linecap:round;stroke-linejoin:miter;stroke-opacity:0.5"
         id="e20_path"
         inkscape:connector-curvature="0" />
      <path
         d="m 116.073,95.4087 c -0.517,0.3006 -1.221,1.5208 -1.298,2.012 -0.076,0.4911 0.098,1.2654 0.325,1.5577 0.227,0.2922 0.729,0.6105 1.168,0.7139 0.439,0.1034 1.784,-0.3661 2.077,-0.8437 0.293,-0.4777 0.257,-1.6185 -0.065,-2.077"
         style="fill:none;stroke:#000000;stroke-width:0.5px;stroke-linecap:round;stroke-linejoin:miter"
         id="e21_path"
         inkscape:connector-curvature="0" />
      <path
         d="m 121.81,97.7452 c -0.514,0.5422 -1.837,1.4502 -2.466,1.6875 -0.629,0.2373 -1.742,0.453 -2.337,0.5192 -0.594,0.0661 -1.871,0.0661 -2.466,0"
         style="fill:none;stroke:#000000;stroke-width:1px;stroke-linecap:round;stroke-linejoin:miter"
         id="e22_path"
         inkscape:connector-curvature="0" />
      <path
         d="m 114.411,94.5 c 0.746,0.4781 2.308,1.3242 3.115,1.6875 0.808,0.3633 3.294,1.2177 4.154,1.4279"
         style="fill:none;stroke:#000000;stroke-width:1px;stroke-linecap:round;stroke-linejoin:miter"
         id="e23_path"
         inkscape:connector-curvature="0" />
      <path
         d="m 111.945,80.0913 c 0.442,0.2896 1.496,0.1361 1.557,1.4279 0.062,1.2919 -0.501,6.3752 -0.519,8.6971 -0.018,2.322 0.111,7.8696 0.13,9.8657 0.019,1.996 -0.027,4.849 0.13,6.101 0.157,1.251 0.474,3.268 0.259,4.024 -0.214,0.755 -0.723,1.889 -0.519,2.336 0.204,0.447 1.13,1.33 0.649,1.688 -0.481,0.358 -2.814,0.529 -3.764,0.519 -0.95,-0.01 -2.593,-0.253 -3.505,-0.519"
         style="fill:none;stroke:#000000;stroke-width:1px;stroke-linecap:round;stroke-linejoin:miter"
         id="e24_path"
         inkscape:connector-curvature="0" />
      <path
         d="m 123.238,90.2163 c -0.896,-0.3304 -2.81,-0.6603 -3.764,-0.649 -0.955,0.0113 -3.282,0.5202 -4.154,0.9087"
         style="fill:none;stroke:#000000;stroke-width:1px;stroke-linecap:round;stroke-linejoin:miter"
         id="e25_path"
         inkscape:connector-curvature="0" />
      <path
         d="m 107.791,89.3077 c -2.171,-0.8792 -7.139,-1.711 -9.2165,-1.6875 -2.0779,0.0235 -5.4435,0.654 -7.1394,1.2981 -1.6959,0.6441 -1.4197,0.5119 -2.9856,1.4279"
         style="fill:none;stroke:#000000;stroke-width:1px;stroke-linecap:round;stroke-linejoin:miter"
         id="e26_path"
         inkscape:connector-curvature="0" />
      <polyline
         style="fill:none;stroke:#000000;stroke-width:1px;stroke-linecap:butt;stroke-linejoin:miter"
         points="122.589,109.558 113.502,110.596"
         id="e27_polyline" />
      <path
         d="m 123.757,76.7163 c 0.189,1.6471 0.425,4.9146 0.39,6.6202 -0.036,1.7057 -0.155,4.8104 -0.39,7.0097 -0.235,2.1993 -0.806,7.9754 -0.908,10.6438 -0.102,2.669 -0.102,6.029 0,8.698"
         style="fill:none;stroke:#000000;stroke-width:1px;stroke-linecap:round;stroke-linejoin:miter"
         id="e28_path"
         inkscape:connector-curvature="0" />
      <path
         d="m 82.0889,86.8413 c 0.4265,-0.4197 1.3373,-1.2004 1.8173,-1.5576 0.48,-0.3572 8.9096,-2.721 11.9424,-3.375 3.0328,-0.654 11.7414,-1.2273 15.5764,-2.077 3.835,-0.8497 6.905,-0.8658 8.568,-2.3365 1.663,-1.4707 1.973,-1.5766 1.947,-2.3365 -0.026,-0.7599 -1.694,-1.7243 -2.337,-2.2068 -0.643,-0.4825 -6.067,-2.3725 -8.178,-2.8557 -2.111,-0.4832 -12.8326,-1.3388 -16.8745,-0.1299 -4.0419,1.2089 -14.5111,7.1468 -15.9808,12.0722 -1.4697,4.9254 -2.7776,9.4626 -2.8558,12.7211 -0.0782,3.2585 1.0598,8.8254 1.8173,11.6824 0.7575,2.857 2.7235,7.172 3.5049,9.606 0.7814,2.434 2.418,8.411 2.9855,10.904"
         style="fill:none;stroke:#000000;stroke-width:1px;stroke-linecap:round;stroke-linejoin:miter"
         id="e29_path"
         inkscape:connector-curvature="0" />
      <path
         d="m 94.9771,94.6077 c -0.1501,0.3355 -0.2474,1.0502 -0.3711,1.4227 -0.1237,0.3726 -0.0952,1.4731 0.1855,1.7321 0.2807,0.259 0.9357,0.4436 1.2372,0.4948 0.3015,0.0512 0.7375,0.106 1.1135,-0.0618 0.376,-0.1678 1.2736,-1.1035 1.4846,-1.6083 0.211,-0.5049 0.2924,-1.3191 0.1856,-1.8558"
         style="fill:none;stroke:#000000;stroke-width:0.5px;stroke-linecap:butt;stroke-linejoin:miter"
         id="e30_path"
         inkscape:connector-curvature="0" />
      <path
         d="m 96.6473,96.4016 c 0.1777,0.0557 0.5836,-0.008 0.7423,-0.0619 0.1587,-0.0539 0.43,-0.2782 0.433,-0.433 0.003,-0.1548 -0.1454,-0.4505 -0.3093,-0.5567 -0.1639,-0.1062 -0.6697,-0.2161 -0.9279,-0.0619 -0.2581,0.1542 -0.6485,0.9884 -0.6185,1.3609 0.0299,0.3725 0.0055,0.2911 0.1855,0.6186"
         style="fill:none;stroke:#000000;stroke-width:0.2px;stroke-linecap:round;stroke-linejoin:miter"
         id="e31_path"
         inkscape:connector-curvature="0" />
      <path
         d="m 115.282,108.959 c 0.111,-0.108 0.231,-0.181 0.495,-0.371 0.264,-0.19 1.675,-0.328 1.98,-0.186 0.304,0.142 0.458,0.286 0.556,0.433 0.098,0.147 0.065,0.081 0.124,0.248"
         style="fill:none;stroke:#000000;stroke-width:0.5px;stroke-linecap:round;stroke-linejoin:miter"
         id="e32_path"
         inkscape:connector-curvature="0" />
      <polyline
         style="fill:none;stroke:#000000;stroke-width:0.5px;stroke-linecap:round;stroke-linejoin:round"
         points="110.395,110.196 111.633,110.32 111.818,110.815"
         id="e33_polyline" />
      <path
         d="m 116.705,75.9264 c -1.469,0.483 -4.498,1.3652 -5.938,1.732 -1.441,0.3668 -3.937,0.9809 -5.568,1.2372 -1.63,0.2562 -5.5703,0.9999 -7.4228,1.1134 -1.8524,0.1136 -5.5999,0.6141 -7.2993,1.3609 -1.6994,0.7468 -1.3292,0.5376 -2.8455,1.6084"
         style="fill:none;stroke:#000000;stroke-width:1px;stroke-linecap:round;stroke-linejoin:miter"
         id="e34_path"
         inkscape:connector-curvature="0" />
      <path
         d="m 116.581,74.1943 c -1.385,0.3087 -3.781,0.8693 -5.567,1.1135 -1.786,0.2442 -6.66,0.927 -8.66,1.2372 -2,0.3101 -5.5052,0.9865 -7.2996,1.4846 -1.7943,0.498 -9.876,3.8002 -11.5057,4.7012"
         style="fill:none;stroke:#000000;stroke-width:1px;stroke-linecap:round;stroke-linejoin:miter"
         id="e35_path"
         inkscape:connector-curvature="0" />
      <path
         d="m 114.354,73.2046 c -1.855,-0.4612 -5.644,-1.0285 -7.546,-1.2372 -1.903,-0.2086 -5.394,-0.3138 -7.6709,0 -2.2773,0.3138 -8.0747,2.3235 -10.1448,3.4641 -2.0701,1.1407 -5.0888,3.5273 -6.4333,5.0724 -1.3444,1.5451 -3.3824,5.0035 -4.0827,6.9282"
         style="fill:none;stroke:#000000;stroke-width:1px;stroke-linecap:round;stroke-linejoin:miter"
         id="e36_path"
         inkscape:connector-curvature="0" />
      <path
         d="m 120.664,75.0604 c -0.367,-0.1636 -1.11,-0.473 -1.485,-0.6186 -0.374,-0.1456 -0.98,-0.3658 -1.361,-0.4949"
         style="fill:none;stroke:#000000;stroke-width:1px;stroke-linecap:round;stroke-linejoin:miter"
         id="e37_path"
         inkscape:connector-curvature="0" />
      <path
         d="m 78.8475,89.4116 c 0.6617,-0.0887 2.0966,-0.433 2.598,-0.6186 0.5015,-0.1857 1.1145,-0.4616 1.4847,-0.6186 0.3701,-0.157 0.497,-0.2114 0.866,-0.3712"
         style="fill:none;stroke:#000000;stroke-width:0.5px;stroke-linecap:round;stroke-linejoin:miter"
         id="e38_path"
         inkscape:connector-curvature="0" />
      <polyline
         style="fill:none;stroke:#000000;stroke-width:0.5px;stroke-linecap:round;stroke-linejoin:miter"
         points="79.0949,89.7827 83.7962,89.7209"
         id="e39_polyline" />
      <path
         d="m 78.9712,90.525 c 0.6885,-0.1797 2.3165,-0.1879 2.8455,-0.0618 0.529,0.126 1.075,0.3502 1.4227,0.4948 0.3478,0.1446 0.7186,0.3191 1.0516,0.4949"
         style="fill:none;stroke:#000000;stroke-width:0.5px;stroke-linecap:round;stroke-linejoin:miter"
         id="e40_path"
         inkscape:connector-curvature="0" />
      <path
         d="m 79.3424,91.391 c 0.5904,-0.1231 1.9499,-0.0973 2.4124,0 0.4626,0.0974 0.9883,0.2895 1.2991,0.433 0.3107,0.1436 0.7751,0.4168 1.0516,0.6186"
         style="fill:none;stroke:#000000;stroke-width:0.5px;stroke-linecap:round;stroke-linejoin:miter"
         id="e41_path"
         inkscape:connector-curvature="0" />
      <path
         d="m 82.7446,92.7519 c -0.2031,-0.1193 -0.4631,-0.2537 -0.866,-0.3711 -0.403,-0.1174 -1.8143,-0.1713 -2.4125,0.1237 -0.5982,0.295 -1.7229,1.4069 -2.0414,2.1032 -0.3184,0.6963 -0.6056,2.3003 -0.5567,3.1548 0.0489,0.8544 0.707,2.7655 0.9279,3.5255 0.2209,0.761 0.934,2.017 1.4846,2.351 0.5506,0.334 1.852,0.42 2.3506,0.309 0.4986,-0.11 1.2674,-0.643 1.4228,-0.989 0.1553,-0.346 0.181,-0.978 0.1237,-1.299 -0.0573,-0.322 -0.449,-1.07 -0.6805,-1.299"
         style="fill:none;stroke:#000000;stroke-width:0.80000001px;stroke-linecap:round;stroke-linejoin:miter"
         id="e42_path"
         inkscape:connector-curvature="0" />
      <path
         d="m 83.2394,96.8346 c 0.0351,-0.344 -0.0976,-1.0056 -0.2474,-1.3609 -0.1498,-0.3553 -0.7669,-1.1001 -1.2372,-1.1753 -0.4702,-0.0753 -1.554,0.1023 -2.0413,0.6186 -0.4872,0.5162 -1.1352,2.6463 -1.1753,3.4022 -0.0401,0.7559 0.2806,1.9348 0.4949,2.4128 0.2142,0.477 0.8154,1.103 1.1753,1.299 0.3598,0.195 1.2318,0.224 1.5464,0 0.3147,-0.225 0.0846,0.005 0.3093,-0.31"
         style="fill:none;stroke:#000000;stroke-width:0.5px;stroke-linecap:round;stroke-linejoin:miter"
         id="e43_path"
         inkscape:connector-curvature="0" />
      <path
         d="m 82.126,96.9583 c -0.2252,-0.2087 -1.0762,-0.3615 -1.299,-0.1856 -0.2228,0.176 -0.3991,0.6028 -0.433,0.8661 -0.034,0.2633 0.1536,0.8744 0.3092,1.1134 0.1557,0.239 0.7552,0.5755 0.9898,0.5567 0.2346,-0.0187 0.514,-0.1465 0.6804,-0.3093 0.1665,-0.1627 0.4068,-0.7686 0.3712,-1.0516 -0.0356,-0.2829 -0.3934,-0.7809 -0.6186,-0.9897 z"
         style="fill:none;stroke:#000000;stroke-width:0.5px;stroke-linecap:round;stroke-linejoin:miter"
         id="e44_path"
         inkscape:connector-curvature="0" />
      <path
         d="m 78.9403,103.392 c 0.4057,1.307 1.2285,3.912 1.732,5.196 0.5035,1.284 1.6217,3.956 1.9795,5.196 0.3578,1.24 0.9177,3.555 1.3609,4.577 0.4432,1.023 1.2877,2.847 1.6083,3.836 0.3207,0.989 1.02,4.408 1.1135,5.443"
         style="fill:none;stroke:#000000;stroke-width:1px;stroke-linecap:round;stroke-linejoin:miter"
         id="e45_path"
         inkscape:connector-curvature="0" />
      <path
         d="m 81.4146,104.134 c 0.5655,1.282 1.6452,3.837 2.1032,5.196 0.458,1.359 1.4452,4.515 1.8558,5.567 0.4106,1.052 0.843,1.979 1.1134,2.97 0.2705,0.99 0.8048,3.7 0.9898,4.948 0.1849,1.248 0.267,1.959 0.3711,3.217"
         style="fill:none;stroke:#000000;stroke-width:1px;stroke-linecap:round;stroke-linejoin:miter"
         id="e46_path"
         inkscape:connector-curvature="0" />
      <path
         d="m 83.425,102.031 c 0.0586,1.011 0.4645,3.101 0.866,3.959 0.4016,0.858 1.1304,2.009 1.7321,3.093 0.6017,1.083 2.479,4.313 3.0929,5.567 0.614,1.253 1.4867,3.104 2.3506,4.206 0.864,1.102 3.2208,3.353 4.5776,4.454 1.3567,1.102 5.1068,3.199 6.5568,3.835 1.45,0.637 3.709,0.98 4.949,1.237 1.24,0.258 4.493,-0.386 5.072,-1.36 0.58,-0.975 0.653,-3.066 0.619,-3.836 -0.034,-0.769 -0.18,-1.837 -0.495,-2.227 -0.315,-0.389 -0.912,-1.016 -1.113,-1.484 -0.202,-0.468 -0.287,-2.051 0.123,-2.227 0.411,-0.176 1.664,-0.5 1.856,-0.99 0.192,-0.489 0.083,-1.199 -0.247,-1.608"
         style="fill:none;stroke:#000000;stroke-width:1px;stroke-linecap:round;stroke-linejoin:miter"
         id="e47_path"
         inkscape:connector-curvature="0" />
      <path
         d="m 86.2705,109.701 c 0.1079,1.339 0.4969,4.215 0.7423,5.32 0.2455,1.105 0.7315,2.696 0.866,3.588 0.1346,0.891 0.4392,2.632 0.7423,3.464 0.3032,0.832 0.5418,1.339 0.9898,2.103"
         style="fill:none;stroke:#000000;stroke-width:1px;stroke-linecap:round;stroke-linejoin:miter"
         id="e48_path"
         inkscape:connector-curvature="0" />
      <polyline
         style="fill:none;stroke:#000000;stroke-width:1px;stroke-linecap:round;stroke-linejoin:miter"
         points="117.849,75.4315 120.2,74.9366"
         id="e49_polyline" />
      <polyline
         style="fill:none;stroke:#000000;stroke-width:1px;stroke-linecap:round;stroke-linejoin:miter"
         points="117.849,76.545 120.819,75.3078"
         id="e50_polyline" />
      <path
         d="m 124.283,77.2873 c 0.52,0.590698 1.696,1.784699 2.227,2.226898 0.53,0.442101 1.176,1.1567 1.85501,1.484604 0.67999,0.327896 2.73098,1.4123 2.84599,2.474297 0.115,1.062004 -0.497,3.317398 -0.743,5.072403 -0.24499,1.754997 -1.089,6.862098 -1.608,8.907699 -0.518,2.045502 -1.945,5.807799 -2.103,7.546799 -0.158,1.739 -1.101,5.383 -1.732,6.186 -0.631,0.803 -0.933,1.013 -1.237,1.237 -0.305,0.224 -0.486,0.592 -1.114,0.619 -0.628,0.027 -3.213,-0.033 -3.835,-0.248 -0.622,-0.215 -1.634,-0.39 -1.856,-0.124 -0.221,0.267 -0.39,0.591 -0.371,0.866 0.019,0.276 0.023,1.38 -0.247,1.361 -0.271,-0.019 -1.899,0.147 -1.732,0.371 0.167,0.225 1.771,1.027 1.484,1.361 -0.287,0.335 -1.814,1.245 -1.979,1.856 -0.166,0.612 -0.014,1.897 0.247,2.351 0.261,0.453 0.836,1.056 1.114,1.484 0.278,0.428 0.778,1.42 1.237,1.856 0.459,0.436 1.447,1.562 1.856,2.227 0.408,0.665 0.727,2.683 0.495,3.34 -0.233,0.658 -0.896,1.43901 -1.361,1.73201 -0.466,0.29399 -2.06649,2.08392 -6.76064,-1.01233"
         style="fill:none;stroke:#808080;stroke-width:1px;stroke-linecap:round;stroke-linejoin:miter"
         id="e51_path"
         inkscape:connector-curvature="0" />
      <path
         d="m 122.69,75.3833 c 0.667,-0.3895 2.049,-0.8853 2.907,-1.0516 0.859,-0.1664 3.109,-0.0645 3.897,0.2474 0.789,0.3119 1.636,0.897 2.475,1.4846 0.838,0.5877 3.033,2.9817 3.464,4.0208 0.43,1.0392 0.76,2.6767 0.928,3.5878 0.167,0.9111 0.399,6.3773 0.309,7.2993"
         style="fill:none;stroke:#000000;stroke-width:1px;stroke-linecap:round;stroke-linejoin:miter"
         id="e52_path"
         inkscape:connector-curvature="0" />
      <path
         d="m 122.937,75.3833 c 1.316,-0.2233 4.063,0.0268 5.32,0.433 1.257,0.4062 3.543,1.736 4.392,2.8455 0.849,1.1095 2.008,4.0414 2.289,5.5054 0.28,1.4639 0.327,3.2866 0.123,4.7631"
         style="fill:none;stroke:#000000;stroke-width:1px;stroke-linecap:round;stroke-linejoin:miter"
         id="e53_path"
         inkscape:connector-curvature="0" />
      <path
         d="m 124.113,76.6204 c 0.596,-0.1709 1.675,-0.3282 2.474,-0.1855 0.798,0.1426 2.821,1.0433 3.588,1.7939 0.766,0.7505 2.042,2.7902 2.412,3.8971 0.37,1.1068 0.712,3.5117 0.742,4.7012 0.031,1.1895 -0.13,2.9793 -0.371,4.1445"
         style="fill:none;stroke:#000000;stroke-width:1px;stroke-linecap:round;stroke-linejoin:miter"
         id="e54_path"
         inkscape:connector-curvature="0" />
      <path
         d="m 101.395,99.8589 c -0.269,-0.1429 -0.351,0.071 -1.114,-0.4949 -2.1226,0.2383 -4.4194,0.2523 -6.4328,0.1856 -0.838,0.9844 -1.3135,2.5814 -1.5465,3.7114 -0.2329,1.13 -0.3997,3.827 -0.5567,5.196 -0.157,1.37 -0.1952,4.61 -0.0618,5.815 0.1334,1.204 0.2444,2.445 0.9278,3.773 0.8691,0.895 1.4203,2.016 2.5981,3.031 0.8685,1.015 2.9443,2.316 2.0413,1.856 0.2724,-0.893 -0.1273,-6.128 0.1237,-7.794 0.2511,-1.666 0.8803,-4.315 1.1754,-5.567 0.295,-1.253 0.8459,-3.351 1.1753,-4.454 0.3292,-1.104 1.3802,-4.183 1.7942,-5.2581"
         style="fill:none;stroke:#000000;stroke-width:0.69999999;stroke-linecap:round;stroke-linejoin:miter;stroke-opacity:0.8"
         id="e55_path"
         inkscape:connector-curvature="0" />
      <circle
         cx="116.845"
         cy="97.5924"
         r="0.71928"
         style="fill:#96c030;stroke-width:0.13340506px;stroke-linecap:butt;stroke-linejoin:miter"
         id="e56_circle" />
      <circle
         cx="96.941597"
         cy="95.809799"
         r="0.65785301"
         style="fill:#8d7fff;stroke-width:0.13340506px;stroke-linecap:butt;stroke-linejoin:miter"
         id="e57_circle" />
    </svg>
  </g>
  <g
     id="g3788"
     transform="matrix(0.63933054,0,0,0.64,-72.169396,59.840798)">
    <g
       id="g3785">
      <text
         x="175.68141"
         y="-55.604614"
         id="e67_texte"
         style="font-size:38.36759949px;font-family:Arial;fill:#3cadb2;stroke:#3cadb2;stroke-width:1.91838002">Camargo Portas</text>
    </g>
  </g>
</svg>
